<svg id="Layer_1" data-name="Layer 1" xmlns="http://www.w3.org/2000/svg" viewBox="0 0 861 278"><defs><style>.cls-1{fill:#1c1c1c;}</style></defs><title>logo</title><path class="cls-1" d="M119.63,22.88q-6.78,3.38-13.6,6.66a10,10,0,0,0-5,12.56,446.08,446.08,0,0,1,28.26,183.31,10,10,0,0,0,10,10.59h15.17a10,10,0,0,0,10-9.45A481.22,481.22,0,0,0,133.42,28.3,10,10,0,0,0,119.63,22.88Z"/><path class="cls-1" d="M293.1,196.44q0,16.63-12.23,26t-36,9.41a99.44,99.44,0,0,1-16.73-1.31,47.36,47.36,0,0,1-13.19-4.05,23.61,23.61,0,0,1-8.58-6.89,15.93,15.93,0,0,1-3.12-9.85,17.08,17.08,0,0,1,2.15-8.86,21.94,21.94,0,0,1,5.15-6,83.67,83.67,0,0,0,14.26,6.24,57.74,57.74,0,0,0,18.56,2.73q6.64,0,10.19-2t3.54-5.25a5.53,5.53,0,0,0-2.57-4.81q-2.58-1.75-8.59-2.85l-6.43-1.31Q220.81,184,211.69,176t-9.12-22.86A31.11,31.11,0,0,1,206,138.46a30.55,30.55,0,0,1,9.66-11,48.06,48.06,0,0,1,14.91-6.78,72,72,0,0,1,19.2-2.41,87.93,87.93,0,0,1,14.91,1.21,48.12,48.12,0,0,1,12.12,3.61,22,22,0,0,1,8.15,6.24,14.26,14.26,0,0,1,3,9.08,19.06,19.06,0,0,1-1.82,8.64,19.6,19.6,0,0,1-4.61,6,26.27,26.27,0,0,0-5.15-2.3c-2.29-.8-4.8-1.53-7.51-2.19s-5.47-1.2-8.26-1.64a49.28,49.28,0,0,0-7.62-.66q-7.08,0-10.94,1.64c-2.57,1.1-3.86,2.81-3.86,5.15a4.66,4.66,0,0,0,2.15,3.94c1.43,1,4.14,2,8.15,2.84l6.65,1.53q20.6,4.81,29.28,13.24T293.1,196.44Z"/><path class="cls-1" d="M446.28,118.54A86.58,86.58,0,0,1,467.41,121a47,47,0,0,1,16.31,7.33,32.93,32.93,0,0,1,10.4,12.47,40.66,40.66,0,0,1,3.65,17.84v49a13.73,13.73,0,0,1-3.11,9.3,31.19,31.19,0,0,1-7.4,6.24q-14,8.54-39.26,8.53a88.52,88.52,0,0,1-20.49-2.18,48.07,48.07,0,0,1-15.66-6.57,29.89,29.89,0,0,1-10.08-11.16A33.55,33.55,0,0,1,398.23,196q0-15.1,8.8-23.2t27.24-10.06l28.1-3.07v-1.53a9.39,9.39,0,0,0-5.47-9.08q-5.46-2.73-15.76-2.74a72,72,0,0,0-15.88,1.75,83.16,83.16,0,0,0-13.94,4.38,15,15,0,0,1-4.72-6,19.28,19.28,0,0,1-1.93-8.42q0-5.69,2.68-9.08a20.77,20.77,0,0,1,8.26-5.8,63.52,63.52,0,0,1,14.69-3.5A125.09,125.09,0,0,1,446.28,118.54Zm1.72,86a46.24,46.24,0,0,0,8-.77,19.52,19.52,0,0,0,6.55-2.07V184.19l-15.45,1.31a23.53,23.53,0,0,0-9.87,2.63,7.1,7.1,0,0,0-3.86,6.56,8.79,8.79,0,0,0,3.33,7.12Q440.05,204.54,448,204.54Z"/><path class="cls-1" d="M548,191.63q0,5.69,3.54,8.1t10,2.4a42.75,42.75,0,0,0,6.65-.54,36.7,36.7,0,0,0,6-1.43,27.62,27.62,0,0,1,3.33,5.36,16.74,16.74,0,0,1,1.39,7.12,17.06,17.06,0,0,1-6.11,13.56q-6.12,5.25-21.56,5.26-18.88,0-29.07-8.76T512,194.26V100.6q2.35-.66,6.76-1.42a54.38,54.38,0,0,1,9.33-.77q9.44,0,14.69,3.39T548,116.14v14h28.1a38.12,38.12,0,0,1,2.47,6,25.82,25.82,0,0,1,1.18,8q0,7.65-3.33,11a11.9,11.9,0,0,1-8.9,3.39H548Z"/><path class="cls-1" d="M593.94,92.28a19.41,19.41,0,0,1,5.47-14q5.48-5.69,14.48-5.69t14.48,5.69a19.41,19.41,0,0,1,5.47,14,19.42,19.42,0,0,1-5.47,14Q622.9,112,613.89,112t-14.48-5.69A19.42,19.42,0,0,1,593.94,92.28ZM632.12,228q-2.36.44-7,1.21a56.92,56.92,0,0,1-9.33.76,50.22,50.22,0,0,1-8.47-.65,14.29,14.29,0,0,1-6.33-2.63,12.57,12.57,0,0,1-4-5.36,23.61,23.61,0,0,1-1.39-8.86V123.36q2.36-.44,7-1.21a56.83,56.83,0,0,1,9.33-.76,50.3,50.3,0,0,1,8.47.65,14.39,14.39,0,0,1,6.33,2.63,12.57,12.57,0,0,1,4,5.36,23.64,23.64,0,0,1,1.39,8.86Z"/><path class="cls-1" d="M648,121.82q0-11.14,3.75-19.14A36.26,36.26,0,0,1,662,89.55,41.88,41.88,0,0,1,677.1,82a69.36,69.36,0,0,1,18.55-2.41q15.89,0,23.39,4.27t7.51,14.55a16.74,16.74,0,0,1-1.83,7.88,16.53,16.53,0,0,1-4,5.25c-2.71-.73-5.54-1.35-8.47-1.86a60,60,0,0,0-10.19-.77q-9.23,0-14.37,3.18t-5.15,11v7h35.18a38.12,38.12,0,0,1,2.47,6,25.82,25.82,0,0,1,1.18,8q0,7.65-3.33,11a11.9,11.9,0,0,1-8.9,3.39H684.5V228a48.83,48.83,0,0,1-6.76,1.32,69,69,0,0,1-9.55.65,50.3,50.3,0,0,1-8.47-.65,14.39,14.39,0,0,1-6.33-2.63,12.65,12.65,0,0,1-4-5.36,23.61,23.61,0,0,1-1.39-8.86Z"/><path class="cls-1" d="M753.9,201q-2.35-5.47-5-12.25t-5.57-15.54q-2.91-8.75-6-20t-6.54-25.93a27.42,27.42,0,0,1,19.09-7.66q7.5,0,12.44,3.17t7.3,11.93l16.94,60.17h.86q2.58-7.44,5-16.19t4.83-18.05q2.35-9.3,4.4-18.6t3.54-18.28a35.14,35.14,0,0,1,16.94-4.15c5,0,9.15,1.09,12.45,3.28s4.93,6,4.93,11.38A73.09,73.09,0,0,1,838,148q-1.5,7.77-4,16.53t-5.79,18.05q-3.33,9.3-7,18.27t-7.51,17q-3.87,8-7.51,14.33a153.85,153.85,0,0,1-11.16,17.51,61.73,61.73,0,0,1-9.86,10.61,28.09,28.09,0,0,1-9.44,5.25,34,34,0,0,1-9.87,1.43q-9,0-14.59-5.48a23.14,23.14,0,0,1-6.65-14.22q6.87-5.47,13.73-12.14a146.67,146.67,0,0,0,12.44-13.68,20.21,20.21,0,0,1-7.83-5.14Q758.84,212.2,753.9,201Z"/><path class="cls-1" d="M385.46,200.16a36.56,36.56,0,0,1-6,1.43,42.85,42.85,0,0,1-6.65.54q-6.44,0-10-2.4t-3.54-8.1v-33h19.52a11.92,11.92,0,0,0,8.91-3.39q3.31-3.4,3.32-11a25.53,25.53,0,0,0-1.18-8,38.12,38.12,0,0,0-2.47-6h-28.1v-14q0-11-5.25-14.34t-14.7-3.39a54.38,54.38,0,0,0-9.33.77q-4.41.76-6.76,1.42v28.54H307.52a11.88,11.88,0,0,0-8.9,3.39q-3.33,3.39-3.33,11.05a25.82,25.82,0,0,0,1.18,8,38.12,38.12,0,0,0,2.47,6h24.31v36.67q0,19.69,10.19,28.44t29.07,8.76q15.45,0,21.56-5.26a17.06,17.06,0,0,0,6.11-13.56,16.59,16.59,0,0,0-1.39-7.12A27.15,27.15,0,0,0,385.46,200.16Z"/><path class="cls-1" d="M83.62,81.39q-7.12,2.44-14.28,4.79a10,10,0,0,0-6.51,12.06,404.74,404.74,0,0,1,12.3,127.09,10,10,0,0,0,10,10.67h15.13a10,10,0,0,0,10-9.4A439.81,439.81,0,0,0,96.49,88.25,10,10,0,0,0,83.62,81.39Z"/><path class="cls-1" d="M44.42,137.36q-7.37,1.38-14.75,2.66a10,10,0,0,0-8.15,11.25A364.35,364.35,0,0,1,24,225.35a10,10,0,0,0,10,10.65H49a10,10,0,0,0,10-9.3,400.25,400.25,0,0,0-2.87-80.83A10,10,0,0,0,44.42,137.36Z"/></svg>